# AST/ASF file generated using VICON BodyLanguage
# -----------------------------------------------
:version 1.10
:name VICON
:units
  mass 1.0
  length 0.45
  angle deg
:documentation
   .ast/.asf automatically generated from VICON data using
   VICON BodyBuilder and BodyLanguage model FoxedUp or BRILLIANT.MOD
:root
   order TX TY TZ RX RY RZ
   axis XYZ
   position 0 0 0  
   orientation 0 0 0 
:bonedata
  begin
     id 1 
     name lhipjoint
     direction 0.710188 -0.616876 0.339259 
     length 2.5669 
     axis 0 0 0  XYZ
  end
  begin
     id 2 
     name lfemur
     direction 0.34202 -0.939693 0  
     length 7.12796  
     axis 0 0 20  XYZ
    dof rx ry rz
    limits (-160.0 20.0)
           (-70.0 70.0)
           (-60.0 70.0)
  end
  begin
     id 3 
     name ltibia
     direction 0.34202 -0.939693 0   
     length 7.58108   
     axis 0 0 20   XYZ
    dof rx
    limits (-10.0 170.0)
  end
  begin
     id 4 
     name lfoot
     direction 0.0669471 -0.183936 0.980656   
     length 2.17365   
     axis -90 7.62852e-016 20   XYZ
    dof rx rz
    limits (-45.0 90.0)
           (-70.0 20.0)
  end
  begin
     id 5 
     name ltoes
     direction 1.53508e-011 -4.21705e-011 1   
     length 1.09427   
     axis -90 7.62852e-016 20   XYZ
    dof rx
    limits (-90.0 20.0)
  end
  begin
     id 6 
     name rhipjoint
     direction -0.700191 -0.625589 0.34405   
     length 2.53115  
     axis 0 0 0  XYZ 
  end
  begin
     id 7 
     name rfemur
     direction -0.34202 -0.939693 0   
     length 7.33006   
     axis 0 0 -20   XYZ
    dof rx ry rz
    limits (-160.0 20.0)
           (-70.0 70.0)
           (-70.0 60.0)
  end
  begin
     id 8 
     name rtibia
     direction -0.34202 -0.939693 0   
     length 7.64926   
     axis 0 0 -20   XYZ
    dof rx
    limits (-10.0 170.0)
 end
 begin
     id 9 
     name rfoot
     direction -0.0688927 -0.189281 0.979503   
     length 2.20493  
     axis -90 -7.62852e-016 -20   XYZ
    dof rx rz
    limits (-45.0 90.0)
           (-20.0 70.0)
  end
  begin
     id 10 
     name rtoes
     direction -1.53567e-011 -4.21933e-011 1   
     length 1.10919   
     axis -90 -7.62852e-016 -20   XYZ
    dof rx
    limits (-90.0 20.0)
  end
  begin
     id 11 
     name lowerback
     direction -0.0167868 0.989873 -0.140959   
     length 2.14596   
     axis 0 0 0   XYZ
    dof rx ry rz
    limits (-20.0 45.0)
           (-30.0 30.0)
           (-30.0 30.0)
  end
  begin
     id 12 
     name upperback
     direction 0.0129109 0.998033 0.0613525   
     length 2.10457   
     axis 0 0 0   XYZ
    dof rx ry rz
    limits (-20.0 45.0)
           (-30.0 30.0)
           (-30.0 30.0)
  end
  begin
     id 13 
     name thorax
     direction 0.0177047 0.991119 0.131797   
     length 2.17652   
     axis 0 0 0   XYZ
    dof rx ry rz
    limits (-20.0 45.0)
           (-30.0 30.0)
           (-30.0 30.0)
  end
  begin
     id 14 
     name lowerneck
     direction -0.0336893 0.997548 0.0613464   
     length 1.8912   
     axis 0 0 0   XYZ
    dof rx ry rz
    limits (-20.0 45.0)
           (-30.0 30.0)
           (-30.0 30.0)
  end
  begin
     id 15 
     name upperneck
     direction 0.0435909 0.997179 -0.0611028   
     length 1.8829   
     axis 0 0 0   XYZ
    dof rx ry rz
    limits (-20.0 45.0)
           (-30.0 30.0)
           (-30.0 30.0)
  end
  begin
     id 16
     name head
     direction 0.0175076 0.999444 -0.0283782  
     length 1.93197  
     axis 0 0 0   XYZ
    dof rx ry rz
    limits (-20.0 45.0)
           (-30.0 30.0)
           (-30.0 30.0)
  end
  begin
     id 17 
     name lclavicle
     direction 0.919164 0.389875 0.0559876  
     length 3.60004  
     axis 0 0 0   XYZ
    dof ry rz
    limits (-20.0 10.0)
           (0.0 20.0)
  end
  begin
     id 18 
     name lhumerus
     direction 1 -4.48958e-011 6.89191e-027   
     length 5.43301   
     axis 180 -30 -90   XYZ
    dof rx ry rz
    limits (-60.0 90.0)
           (-90.0 90.0)
           (-90.0 90.0)
  end
  begin
     id 19
     name lradius
     direction 1 -4.4897e-011 3.24727e-027   
     length 3.15936   
     axis 180 -30 -90   XYZ
    dof rx
    limits (-10.0 170.0)
  end
  begin
     id 20
     name lwrist
     direction 1 -4.4897e-011 9.00228e-027   
     length 1.57968   
     axis -6.29373e-015 90 90   XYZ
    dof ry
    limits (-180.0 0.0)
 end
  begin
     id 21 
     name lhand
     direction 1 -4.48968e-011 1.80042e-026   
     length 0.712827   
     axis -1.14882e-014 90 90   XYZ
    dof rx rz
    limits (-90.0 90.0)
           (-45.0 45.0)
  end
  begin
     id 22 
     name lfingers
     direction 1 -4.49019e-011 3.60267e-026   
     length 0.574699   
     axis -2.29769e-014 90 90   XYZ
    dof rx
    limits (0.0 90.0)
  end
  begin
     id 23
     name lthumb
     direction 0.707107 -6.3498e-011 0.707107   
     length 0.825157   
     axis -90 45 5.37419e-014   XYZ
    dof rx rz
    limits (-45.0 45.0)
           (-45.0 45.0)
  end
  begin
     id 24 
     name rclavicle
     direction -0.890334 0.455305 -0.00132111   
     length 3.51494  
     axis 0 0 0   XYZ 
    dof ry rz
    limits (-10.0 20.0)
           (-20.0 0.0)
  end
  begin
     id 25 
     name rhumerus
     direction -1 -4.48967e-011 5.07175e-028  
     length 5.34194   
     axis 180 30 90   XYZ
    dof rx ry rz
    limits (-90.0 60.0)
           (-90.0 90.0)
           (-90.0 90.0)
  end
  begin
     id 26 
     name rradius
     direction -1 -4.48955e-011 3.30467e-027   
     length 3.19351   
     axis 180 30 90   XYZ
    dof rx
    limits (-10.0 170.0)
  end
  begin
     id 27 
     name rwrist
     direction -1 -4.48968e-011 9.00208e-027   
     length 1.59676   
     axis -6.29373e-015 -90 -90   XYZ
    dof ry
    limits (-180.0 0.0)
  end
  begin
     id 28
     name rhand
     direction -1 -4.49e-011 1.80099e-026   
     length 0.743862   
     axis -1.14882e-014 -90 -90   XYZ
    dof rx rz
    limits (-90.0 90.0)
           (-45.0 45.0)
  end
  begin
     id 29
     name rfingers
     direction -1 -4.49009e-011 3.6023e-026   
     length 0.599721   
     axis -2.29769e-014 -90 -90   XYZ
    dof rx
    limits (0.0 90.0)
  end
  begin
     id 30
     name rthumb
     direction -0.707107 -6.35025e-011 0.707107   
     length 0.861083   
     axis -90 -45 -5.37419e-014   XYZ
    dof rx rz
    limits (-45.0 45.0)
           (-45.0 45.0)
  end
:hierarchy
  begin
    root lhipjoint rhipjoint lowerback
    lhipjoint lfemur
    lfemur ltibia
    ltibia lfoot
    lfoot ltoes
    rhipjoint rfemur
    rfemur rtibia
    rtibia rfoot
    rfoot rtoes
    lowerback upperback
    upperback thorax
    thorax lowerneck lclavicle rclavicle
    lowerneck upperneck
    upperneck head
    lclavicle lhumerus
    lhumerus lradius
    lradius lwrist
    lwrist lhand lthumb
    lhand lfingers
    rclavicle rhumerus
    rhumerus rradius
    rradius rwrist
    rwrist rhand rthumb
    rhand rfingers
  end

#!OML:ASF H:\Martial Arts Walks\Project 1\Capture day 1\Session 1\male.ASF
:FULLY-SPECIFIED
:DEGREES
1138
root -6.23427 15.6307 -6.75747 0.845726 26.6294 -0.302313
lowerback 23.0721 8.10776 -11.2888
upperback 3.37647 7.77834 -0.469972
thorax -10.4593 4.08417 3.29477
lowerneck 2.99033 -12.8531 -11.7226
upperneck -6.20209 -17.1228 18.0729
head 0.346555 -8.80334 7.03513
rclavicle 1.08735e-013 -3.89618e-014
rhumerus 48.3682 -11.5017 -50.517
rradius 17.1161
rwrist 35.5282
rhand -24.8791 -48.082
rfingers 7.12502
rthumb 1.62833 -78.0555
lclavicle 1.08735e-013 -3.89618e-014
lhumerus -71.2177 -23.1415 106.535
lradius 104.897
lwrist 56.6238
lhand -16.091 401.361
lfingers 7.12502
lthumb 10.1123 71.098
rfemur -56.9067 -19.2413 28.0675
rtibia 115.759
rfoot -19.5497 -13.7082
rtoes -17.9885
lfemur -28.9294 -4.7231 -16.0922
ltibia 59.1133
lfoot -24.9878 15.3897
ltoes -10.9245
1139
root -6.20471 15.6726 -6.67229 0.0172168 25.5849 -0.425926
lowerback 24.0117 8.15971 -11.0512
upperback 3.79272 7.81452 -0.300275
thorax -10.4744 4.07744 3.27817
lowerneck 2.70449 -12.5367 -11.6724
upperneck -6.41634 -16.6437 17.9072
head 0.240903 -8.55382 7.00428
rclavicle 6.83819e-014 -2.98177e-014
rhumerus 49.6359 -10.6938 -50.6196
rradius 17.2261
rwrist 35.0663
rhand -24.5516 -47.951
rfingers 7.12502
rthumb 1.94459 -77.9218
lclavicle 6.83819e-014 -2.98177e-014
lhumerus -71.0744 -23.3913 106.645
lradius 104.831
lwrist 56.6838
lhand -17.1287 402.086
lfingers 7.12502
lthumb 9.11115 71.8688
rfemur -61.7352 -18.8601 28.7546
rtibia 116.587
rfoot -18.8872 -14.0613
rtoes -19.1659
lfemur -27.0377 -3.81105 -16.0669
ltibia 58.3315
lfoot -24.6666 16.4518
ltoes -11.2743
1140
root -6.1749 15.7124 -6.58009 -0.919312 24.5262 -0.509821
lowerback 25.0117 8.23391 -10.84
upperback 4.22874 7.86923 -0.129645
thorax -10.4979 4.07979 3.26609
lowerneck 2.51268 -12.2273 -11.5763
upperneck -6.66223 -16.1777 17.7152
head 0.107222 -8.31569 6.96542
rclavicle -1.55052e-014 6.83819e-014
rhumerus 51.0815 -10.3478 -51.6502
rradius 17.2074
rwrist 35.3811
rhand -24.1797 -47.6965
rfingers 7.12502
rthumb 2.30381 -77.6638
lclavicle -1.55052e-014 6.83819e-014
lhumerus -71.154 -23.6397 106.701
lradius 105.04
lwrist 56.6655
lhand -17.9182 402.47
lfingers 7.12502
lthumb 8.34926 72.2845
rfemur -66.378 -18.193 29.2641
rtibia 116.972
rfoot -18.2011 -14.784
rtoes -20.0192
lfemur -24.9719 -2.79205 -16.0404
ltibia 57.5338
lfoot -24.5882 17.3025
ltoes -11.1227
1141
root -6.14064 15.7499 -6.47625 -1.99114 23.5192 -0.505867
lowerback 26.1336 8.33717 -10.5815
upperback 4.68355 7.95857 0.00242389
thorax -10.5477 4.09533 3.16117
lowerneck 2.35912 -11.9574 -11.463
upperneck -6.86957 -15.773 17.5271
head -0.0126251 -8.10932 6.92051
rclavicle -6.38099e-014 -3.97569e-015
rhumerus 52.2875 -9.83299 -52.0557
rradius 17.2882
rwrist 34.9401
rhand -24.1213 -47.7472
rfingers 7.12502
rthumb 2.36022 -77.7139
lclavicle -6.38099e-014 -3.97569e-015
lhumerus -71.2257 -23.8743 106.751
lradius 105.161
lwrist 56.2252
lhand -18.6053 402.411
lfingers 7.12502
lthumb 7.68615 72.2509
rfemur -70.7434 -17.4372 29.4451
rtibia 116.937
rfoot -17.3759 -15.3257
rtoes -19.6926
lfemur -22.6281 -1.74546 -16.0588
ltibia 56.6413
lfoot -24.6059 17.976
ltoes -11.1865
1142
root -6.10931 15.7779 -6.36995 -3.15353 22.7195 -0.501105
lowerback 27.3627 8.34372 -10.3015
upperback 5.16461 7.92642 0.167492
thorax -10.5961 4.05436 3.12273
lowerneck 2.11401 -11.6857 -11.33
upperneck -7.00294 -15.3688 17.2314
head -0.106382 -7.89574 6.83019
rclavicle 1.42727e-013 -7.55382e-014
rhumerus 53.5724 -9.31384 -52.6697
rradius 17.3892
rwrist 34.7554
rhand -23.9636 -47.2754
rfingers 7.12502
rthumb 2.51253 -77.2403
lclavicle 1.42727e-013 -7.55382e-014
lhumerus -71.2544 -23.9609 106.739
lradius 105.335
lwrist 55.4978
lhand -18.82 402.109
lfingers 7.12502
lthumb 7.47891 71.9569
rfemur -74.9824 -16.7383 29.4421
rtibia 116.566
rfoot -16.2573 -15.7435
rtoes -18.2814
lfemur -20.2462 -0.863649 -16.0158
ltibia 55.7275
lfoot -24.6914 18.4448
ltoes -11.0696
1143
root -6.07133 15.8105 -6.25091 -4.40445 21.9476 -0.336839
lowerback 28.877 8.40382 -10.0656
upperback 5.2296 7.89658 0.377102
thorax -10.4604 4.0003 2.86937
lowerneck 1.92537 -11.4375 -11.1472
upperneck -7.08495 -15.0052 16.9595
head -0.188984 -7.7055 6.73765
rclavicle -7.95139e-015 -1.78906e-014
rhumerus 54.6095 -8.73412 -52.9493
rradius 17.5459
rwrist 34.3739
rhand -23.7866 -47.1586
rfingers 7.12502
rthumb 2.68343 -77.1215
lclavicle -7.95139e-015 -1.78906e-014
lhumerus -71.4709 -24.1138 106.697
lradius 105.622
lwrist 54.6802
lhand -18.8414 401.643
lfingers 7.12502
lthumb 7.45823 71.4918
rfemur -78.7735 -16.0244 29.0041
rtibia 115.857
rfoot -15.5868 -16.027
rtoes -18.126
lfemur -17.5825 -0.00202125 -16.1029
ltibia 54.6996
lfoot -24.9201 18.6774
ltoes -10.8752
1144
root -6.03979 15.8326 -6.12915 -5.73096 21.3966 -0.307696
lowerback 30.3496 8.3753 -9.63081
upperback 5.62061 7.84199 0.489854
thorax -10.5977 3.94642 2.67422
lowerneck 1.6982 -11.2463 -10.9795
upperneck -7.08211 -14.7262 16.691
head -0.226081 -7.55442 6.63604
rclavicle 6.06293e-015 -3.06128e-014
rhumerus 55.5478 -8.14917 -52.8801
rradius 17.6699
rwrist 34.0236
rhand -23.5784 -46.8622
rfingers 7.12502
rthumb 2.88449 -76.8225
lclavicle 6.06293e-015 -3.06128e-014
lhumerus -71.6519 -24.3283 106.67
lradius 105.867
lwrist 53.9723
lhand -18.997 400.99
lfingers 7.12502
lthumb 7.30808 70.8438
rfemur -82.4641 -15.4785 28.6132
rtibia 114.919
rfoot -14.6025 -16.0538
rtoes -17.3154
lfemur -14.9889 0.700347 -15.9802
ltibia 53.687
lfoot -25.0926 18.7142
ltoes -10.645
1145
root -6.00537 15.8533 -5.99594 -7.0847 20.92 -0.217842
lowerback 31.7439 8.32268 -9.22935
upperback 5.9975 7.76516 0.581773
thorax -10.6978 3.88442 2.49514
lowerneck 1.55475 -11.0561 -10.786
upperneck -7.04617 -14.4591 16.3932
head -0.269012 -7.41207 6.52504
rclavicle 1.12015e-013 -4.49253e-014
rhumerus 56.3963 -7.6543 -52.9785
rradius 17.7567
rwrist 34.1421
rhand -23.3731 -46.6162
rfingers 7.12502
rthumb 3.0828 -76.5737
lclavicle 1.12015e-013 -4.49253e-014
lhumerus -71.9805 -24.5355 106.625
lradius 106.227
lwrist 53.4884
lhand -19.0347 400.406
lfingers 7.12502
lthumb 7.27166 70.2615
rfemur -85.9024 -15.0286 28.0367
rtibia 113.835
rfoot -13.9759 -15.8251
rtoes -17.3085
lfemur -12.2876 1.27135 -15.8907
ltibia 52.6382
lfoot -25.2312 18.8024
ltoes -10.529
